<svg width="768" height="768" viewBox="0 0 768 768" fill="none" xmlns="http://www.w3.org/2000/svg">
<path d="M768 0H0V768H768V0Z" fill="url(#paint0_linear)"/>
<path d="M384 236.8C429.55 236.8 466.47 230.65 466.47 223.05C466.47 217.65 447.8 212.99 420.65 210.74V145.16C420.65 140.1 404.24 136 384 136C363.76 136 347.35 140.1 347.35 145.16V210.74C320.2 212.99 301.53 217.66 301.53 223.05C301.53 230.65 338.45 236.8 384 236.8ZM384 163.49C394.12 163.49 402.33 171.7 402.33 181.82C402.33 191.94 394.12 200.15 384 200.15C373.88 200.15 365.67 191.94 365.67 181.82C365.67 171.7 373.88 163.49 384 163.49ZM519.95 241.38C498.2 254.81 445.53 264.29 384 264.29C322.47 264.29 269.8 254.81 248.05 241.38C241.18 245.62 237.38 250.26 237.38 255.13V603.35C237.38 623.59 303.02 640 384 640C464.98 640 530.62 623.59 530.62 603.35V255.13C530.62 250.27 526.82 245.63 519.95 241.38ZM274.04 282.62C300.91 290.23 340.21 295.03 384 295.03C427.79 295.03 467.1 290.23 493.96 282.62V346.77C470.9 353.3 438.68 357.76 402.32 358.9V331.4C396.32 331.59 390.2 331.68 383.99 331.68C377.78 331.68 371.67 331.58 365.66 331.4V404.71C371.66 404.9 377.78 404.99 383.99 404.99C390.2 404.99 396.31 404.89 402.32 404.71V377.22C438.68 376.09 470.9 371.62 493.96 365.09V429.23C467.09 436.84 427.79 441.64 384 441.64C340.21 441.64 300.9 436.84 274.04 429.23V282.62ZM512.29 532.71C507.12 535.04 500.96 537.21 493.96 539.19V594.18C470.9 600.71 438.68 605.17 402.32 606.31V569.66C408.56 569.47 414.68 569.18 420.65 568.79V550.46C408.93 551.21 396.66 551.62 384 551.62C371.34 551.62 359.06 551.21 347.35 550.46V568.79C353.32 569.17 359.44 569.46 365.68 569.66V606.31C329.32 605.18 297.1 600.72 274.04 594.18V539.19C267.04 537.21 260.88 535.04 255.71 532.71V496.06C260.88 498.39 267.04 500.56 274.04 502.54V447.56C297.1 454.09 329.32 458.55 365.68 459.69V496.35C359.44 496.16 353.32 495.87 347.35 495.48V513.8C359.07 514.55 371.34 514.96 384 514.96C396.66 514.96 408.94 514.55 420.65 513.8V495.48C414.68 495.86 408.56 496.15 402.32 496.35V459.69C438.68 458.56 470.9 454.1 493.96 447.56V502.54C500.96 500.56 507.12 498.39 512.29 496.06V532.71Z" fill="white"/>
<defs>
<linearGradient id="paint0_linear" x1="838.277" y1="646.277" x2="-70.2769" y2="121.723" gradientUnits="userSpaceOnUse">
<stop stop-color="#61398C"/>
<stop offset="1" stop-color="#913B8E"/>
</linearGradient>
</defs>
</svg>
