<svg width="960" height="448" viewBox="0 0 960 448" fill="none" xmlns="http://www.w3.org/2000/svg">
<path d="M368.2 212.32C371.89 209.87 376.22 208.64 381.18 208.64C383.93 208.64 386.48 209.03 388.84 209.81C391.2 210.59 393.28 211.72 395.1 213.19C396.91 214.66 398.4 216.43 399.55 218.51C400.71 220.59 401.47 222.96 401.85 225.61H422.38C421.72 220.05 420.23 215.11 417.9 210.8C415.57 206.49 412.56 202.84 408.88 199.85C405.19 196.87 400.97 194.59 396.2 193.03C391.43 191.47 386.27 190.69 380.71 190.69C372.27 190.69 364.68 192.62 357.93 196.48C351.18 200.34 345.84 205.94 341.9 213.28C337.96 220.62 335.99 229.53 335.99 240C335.99 250.44 337.94 259.33 341.83 266.67C345.72 274.01 351.03 279.62 357.77 283.5C364.5 287.38 372.15 289.31 380.72 289.31C386.88 289.31 392.4 288.38 397.29 286.52C402.18 284.66 406.4 282.13 409.95 278.93C413.5 275.73 416.33 272.09 418.43 268.01C420.53 263.93 421.86 259.69 422.39 255.28L401.86 255.19C401.39 257.75 400.55 260.03 399.35 262.03C398.15 264.03 396.64 265.73 394.83 267.12C393.02 268.51 390.95 269.57 388.62 270.28C386.29 271 383.77 271.36 381.05 271.36C376.21 271.36 371.94 270.17 368.25 267.8C364.56 265.43 361.69 261.91 359.65 257.25C357.6 252.59 356.58 246.84 356.58 240C356.58 233.34 357.6 227.68 359.63 223.01C361.66 218.34 364.52 214.77 368.2 212.32ZM819.59 232.71C817.09 227.13 813.61 222.79 809.14 219.68C804.67 216.57 799.48 215.02 793.58 215.02C789.17 215.02 785.52 215.79 782.63 217.34C779.74 218.89 777.41 220.8 775.65 223.08C773.88 225.36 772.53 227.58 771.6 229.74H770.85V192H762.46V288H770.57V274.64H771.6C772.57 276.83 773.94 279.07 775.73 281.37C777.52 283.67 779.86 285.6 782.78 287.16C785.7 288.72 789.35 289.5 793.73 289.5C799.6 289.5 804.77 287.94 809.22 284.81C813.67 281.69 817.14 277.33 819.63 271.73C822.11 266.14 823.36 259.62 823.36 252.18C823.34 244.78 822.09 238.29 819.59 232.71ZM812.37 267.19C810.65 271.69 808.14 275.26 804.82 277.9C801.51 280.54 797.46 281.86 792.68 281.86C788.02 281.86 784.06 280.59 780.8 278.04C777.53 275.49 775.03 271.98 773.3 267.49C771.57 263.01 770.7 257.86 770.7 252.04C770.7 246.29 771.56 241.2 773.28 236.78C775 232.36 777.49 228.89 780.76 226.37C784.03 223.85 788 222.6 792.69 222.6C797.5 222.6 801.56 223.91 804.88 226.51C808.19 229.12 810.7 232.64 812.4 237.08C814.1 241.52 814.95 246.5 814.95 252.03C814.95 257.64 814.09 262.69 812.37 267.19ZM564.36 218.34C560.64 216.15 556.28 215.06 551.28 215.06C545.94 215.06 541.39 216.29 537.64 218.74C533.89 221.19 531.22 224.51 529.62 228.7H528.78V216H509.75V288H529.72V246.37C529.75 243.28 530.34 240.63 531.48 238.42C532.62 236.22 534.21 234.54 536.26 233.38C538.31 232.22 540.67 231.65 543.36 231.65C547.36 231.65 550.5 232.89 552.78 235.38C555.06 237.86 556.19 241.31 556.16 245.72V288H576.13V242.16C576.13 236.57 575.1 231.75 573.04 227.7C570.97 223.65 568.08 220.53 564.36 218.34ZM658.13 236.02H603.66V192H594.89V288H603.66V243.89H658.13V288H666.9V192H658.13V236.02ZM733.37 260.48C733.37 264.89 732.4 268.6 730.46 271.61C728.52 274.63 726.05 276.91 723.05 278.48C720.05 280.04 716.92 280.82 713.67 280.82C708.48 280.82 704.23 279.11 700.92 275.69C697.61 272.27 695.95 267.74 695.95 262.12V216H687.61V262.64C687.61 268.33 688.63 273.12 690.66 277.03C692.69 280.94 695.49 283.9 699.05 285.91C702.61 287.92 706.69 288.93 711.28 288.93C716.56 288.93 721.03 287.7 724.69 285.25C728.35 282.8 731.02 279.73 732.71 276.04H733.37V288H741.71V216H733.37V260.48V260.48ZM486.7 220.83C483.84 218.86 480.57 217.41 476.9 216.47C473.23 215.53 469.39 215.06 465.39 215.06C459.64 215.06 454.59 215.93 450.23 217.66C445.87 219.39 442.32 221.86 439.57 225.07C436.82 228.27 434.98 232.06 434.04 236.44L452.51 237.94C453.2 235.57 454.6 233.59 456.73 232.01C458.86 230.43 461.71 229.64 465.31 229.64C468.72 229.64 471.35 230.45 473.21 232.08C475.07 233.71 476 236 476 238.97V239.25C476 240.78 475.42 241.94 474.27 242.72C473.11 243.5 471.25 244.09 468.69 244.48C466.13 244.87 462.75 245.28 458.56 245.72C455 246.06 451.6 246.66 448.36 247.5C445.12 248.34 442.24 249.59 439.71 251.25C437.18 252.91 435.18 255.09 433.71 257.81C432.24 260.53 431.51 263.89 431.51 267.89C431.51 272.64 432.55 276.6 434.63 279.77C436.71 282.94 439.54 285.33 443.14 286.94C446.73 288.55 450.83 289.35 455.42 289.35C458.98 289.35 462.12 288.87 464.84 287.92C467.56 286.97 469.89 285.64 471.82 283.94C473.76 282.24 475.3 280.26 476.46 278.01H477.02V288H495.96V239.44C495.96 235.16 495.13 231.48 493.48 228.4C491.81 225.32 489.56 222.8 486.7 220.83ZM476.13 262.27C476.13 264.8 475.49 267.07 474.21 269.07C472.93 271.07 471.16 272.66 468.91 273.83C466.66 275 464.07 275.59 461.13 275.59C458.07 275.59 455.54 274.88 453.56 273.46C451.58 272.04 450.58 269.97 450.58 267.25C450.58 265.37 451.06 263.8 452.03 262.54C453 261.27 454.36 260.27 456.11 259.52C457.86 258.77 459.91 258.22 462.25 257.88C463.34 257.72 464.56 257.54 465.91 257.34C467.25 257.14 468.6 256.9 469.94 256.64C471.28 256.37 472.49 256.08 473.57 255.75C474.65 255.42 475.5 255.05 476.12 254.65V262.27H476.13ZM267.34 146C257.85 151.86 234.86 156 208 156C181.14 156 158.15 151.86 148.66 146C145.66 147.85 144 149.88 144 152V304C144 312.84 172.65 320 208 320C243.35 320 272 312.84 272 304V152C272 149.88 270.34 147.85 267.34 146ZM160 164C171.73 167.32 188.88 169.42 208 169.42C227.12 169.42 244.27 167.32 256 164V192C245.93 194.85 231.87 196.8 216 197.29V185.29C213.38 185.37 210.71 185.41 208 185.41C205.29 185.41 202.62 185.37 200 185.29V217.29C202.62 217.37 205.29 217.41 208 217.41C210.71 217.41 213.38 217.37 216 217.29V205.29C231.87 204.8 245.93 202.85 256 200V228C244.27 231.32 227.12 233.42 208 233.42C188.88 233.42 171.73 231.32 160 228V164ZM264 273.17C261.74 274.19 259.05 275.13 256 276V300C245.94 302.85 231.87 304.8 216 305.29V289.29C218.72 289.21 221.39 289.08 224 288.91V280.91C218.89 281.24 213.53 281.42 208 281.42C202.47 281.42 197.11 281.24 192 280.91V288.91C194.61 289.08 197.28 289.2 200 289.29V305.29C184.13 304.79 170.06 302.85 160 300V276C156.95 275.13 154.26 274.19 152 273.17V257.17C154.26 258.19 156.95 259.13 160 260V236C170.06 238.85 184.13 240.8 200 241.29V257.29C197.28 257.21 194.61 257.08 192 256.91V264.91C197.11 265.24 202.47 265.42 208 265.42C213.53 265.42 218.89 265.24 224 264.91V256.91C221.39 257.08 218.72 257.2 216 257.29V241.29C231.87 240.79 245.94 238.85 256 236V260C259.05 259.13 261.74 258.19 264 257.17V273.17ZM208 144C227.88 144 244 141.31 244 138C244 135.64 235.85 133.61 224 132.63V104C224 101.79 216.84 100 208 100C199.16 100 192 101.79 192 104V132.63C180.15 133.61 172 135.65 172 138C172 141.31 188.12 144 208 144ZM208 112C212.42 112 216 115.58 216 120C216 124.42 212.42 128 208 128C203.58 128 200 124.42 200 120C200 115.58 203.58 112 208 112Z" fill="url(#paint0_linear)"/>
<defs>
<linearGradient id="paint0_linear" x1="738.803" y1="412.121" x2="179.563" y2="89.2428" gradientUnits="userSpaceOnUse">
<stop stop-color="#61398C"/>
<stop offset="1" stop-color="#913B8E"/>
</linearGradient>
</defs>
</svg>
